<svg xmlns="http://www.w3.org/2000/svg" xmlns:xlink="http://www.w3.org/1999/xlink" xmlns:lucid="lucid" width="1440" height="1569.83"><g transform="translate(-813.6989349198427 -220.3763689662178)" lucid:page-tab-id="MO~.TQ0qPmLn"><path d="M1313.7 1177.7h160v164h-160z" stroke="#333" stroke-width="2" fill="#fff"/><use xlink:href="#a" transform="matrix(1,0,0,1,1321.6989349198427,1185.7097022995513) translate(8.949999999999996 56)"/><use xlink:href="#b" transform="matrix(1,0,0,1,1321.6989349198427,1185.7097022995513) translate(17.525 77.60000000000001)"/><use xlink:href="#c" transform="matrix(1,0,0,1,1321.6989349198427,1185.7097022995513) translate(37.525 77.60000000000001)"/><use xlink:href="#d" transform="matrix(1,0,0,1,1321.6989349198427,1185.7097022995513) translate(45.05 99.20000000000002)"/><path d="M1693.7 797.7h160v142h-160z" stroke="#333" stroke-width="2" fill="#fff"/><use xlink:href="#e" transform="matrix(1,0,0,1,1701.6989349198427,805.7097022995513) translate(28.574999999999996 55.8)"/><use xlink:href="#f" transform="matrix(1,0,0,1,1701.6989349198427,805.7097022995513) translate(31.049999999999997 77.4)"/><path d="M1693.7 1057.7h160v142h-160z" stroke="#333" stroke-width="2" fill="#fff"/><use xlink:href="#g" transform="matrix(1,0,0,1,1701.6989349198427,1065.7097022995513) translate(31.049999999999997 55.8)"/><use xlink:href="#h" transform="matrix(1,0,0,1,1701.6989349198427,1065.7097022995513) translate(34.574999999999996 77.4)"/><path d="M1621.83 240.38h157.33v121h-157.33z" stroke="#333" stroke-width="2" fill="#fff"/><use xlink:href="#i" transform="matrix(1,0,0,1,1629.8287467807163,248.3763689662178) translate(40.025 56.1)"/><path d="M2012.86 1338.53h160v164h-160z" stroke="#333" stroke-width="2" fill="#fff"/><use xlink:href="#j" transform="matrix(1,0,0,1,2020.8642892505513,1346.5266314334094) translate(18.624999999999993 56)"/><use xlink:href="#k" transform="matrix(1,0,0,1,2020.8642892505513,1346.5266314334094) translate(0.09999999999999432 77.60000000000001)"/><use xlink:href="#l" transform="matrix(1,0,0,1,2020.8642892505513,1346.5266314334094) translate(49.05 77.60000000000001)"/><use xlink:href="#d" transform="matrix(1,0,0,1,2020.8642892505513,1346.5266314334094) translate(45.05 99.20000000000002)"/><path d="M1353.7 1638.7h160v121h-160z" stroke="#333" stroke-width="2" fill="#fff"/><use xlink:href="#m" transform="matrix(1,0,0,1,1361.6989349198427,1646.7097022995513) translate(11.649999999999991 56.1)"/><use xlink:href="#d" transform="matrix(1,0,0,1,1361.6989349198427,1646.7097022995513) translate(78.45 56.1)"/><path d="M1973.7 808.2h160v121h-160z" stroke="#333" stroke-width="2" fill="#fff"/><use xlink:href="#n" transform="matrix(1,0,0,1,1981.698934919843,816.2097022995513) translate(53.55 56.1)"/><path d="M953.7 1628.2h160v142h-160z" stroke="#333" stroke-width="2" fill="#fff"/><use xlink:href="#o" transform="matrix(1,0,0,1,961.6989349198427,1636.2097022995513) translate(32.05 55.8)"/><use xlink:href="#p" transform="matrix(1,0,0,1,961.6989349198427,1636.2097022995513) translate(36.074999999999996 77.4)"/><path d="M1973.7 377.7h160v121h-160z" stroke="#333" stroke-width="2" fill="#fff"/><use xlink:href="#q" transform="matrix(1,0,0,1,1981.698934919843,385.70970229955117) translate(14.024999999999999 56.1)"/><use xlink:href="#b" transform="matrix(1,0,0,1,1981.698934919843,385.70970229955117) translate(64.975 56.1)"/><use xlink:href="#r" transform="matrix(1,0,0,1,1981.698934919843,385.70970229955117) translate(84.975 56.1)"/><path d="M1113.7 785.2h160v164h-160z" stroke="#333" stroke-width="2" fill="#fff"/><use xlink:href="#s" transform="matrix(1,0,0,1,1121.6989349198427,793.2097022995513) translate(44.55 56)"/><use xlink:href="#t" transform="matrix(1,0,0,1,1121.6989349198427,793.2097022995513) translate(21.574999999999996 77.60000000000001)"/><use xlink:href="#u" transform="matrix(1,0,0,1,1121.6989349198427,793.2097022995513) translate(38.55 99.20000000000002)"/><path d="M2073.7 1046.7h160v164h-160z" stroke="#333" stroke-width="2" fill="#fff"/><use xlink:href="#v" transform="matrix(1,0,0,1,2081.698934919843,1054.7097022995513) translate(39.074999999999996 56)"/><use xlink:href="#c" transform="matrix(1,0,0,1,2081.698934919843,1054.7097022995513) translate(27.525 77.60000000000001)"/><use xlink:href="#w" transform="matrix(1,0,0,1,2081.698934919843,1054.7097022995513) translate(11.625 99.20000000000002)"/><use xlink:href="#d" transform="matrix(1,0,0,1,2081.698934919843,1054.7097022995513) translate(78.475 99.20000000000002)"/><path d="M1652.47 1617.7h160v142h-160z" stroke="#333" stroke-width="2" fill="#fff"/><use xlink:href="#x" transform="matrix(1,0,0,1,1660.4685119663923,1625.7097022995513) translate(26.049999999999997 55.8)"/><use xlink:href="#y" transform="matrix(1,0,0,1,1660.4685119663923,1625.7097022995513) translate(76.95 55.8)"/><use xlink:href="#z" transform="matrix(1,0,0,1,1660.4685119663923,1625.7097022995513) translate(37.05 77.4)"/><path d="M1313.7 997.7h160v142h-160z" stroke="#333" stroke-width="2" fill="#fff"/><use xlink:href="#A" transform="matrix(1,0,0,1,1321.6989349198427,1005.7097022995513) translate(11.075000000000003 55.8)"/><use xlink:href="#B" transform="matrix(1,0,0,1,1321.6989349198427,1005.7097022995513) translate(92.025 55.8)"/><use xlink:href="#C" transform="matrix(1,0,0,1,1321.6989349198427,1005.7097022995513) translate(16.074999999999996 77.4)"/><use xlink:href="#d" transform="matrix(1,0,0,1,1321.6989349198427,1005.7097022995513) translate(74.025 77.4)"/><path d="M1973.7 569.7h160v121h-160z" stroke="#333" stroke-width="2" fill="#fff"/><use xlink:href="#D" transform="matrix(1,0,0,1,1981.698934919843,577.7097022995512) translate(26.075000000000003 56.1)"/><use xlink:href="#E" transform="matrix(1,0,0,1,1981.698934919843,577.7097022995512) translate(70.92500000000001 56.1)"/><path d="M1194.45 1699.7h-79.25v-1h79.25zm127.87 0h-49.37v-1h49.37z" stroke="#333" stroke-width=".05" fill="#333"/><path d="M1352 1699.2l-14.86 14.86-15.15-14.85 15.14-14.84z" fill="#333"/><path d="M1352.7 1699.2l-15.55 15.56-15.87-15.55 15.87-15.54zm-30 0l14.44 14.15 14.14-14.14-14.14-14.14z" stroke="#333" stroke-width=".05" fill="#333"/><path d="M1115.2 1699.7h-.5v-1h.5z" fill="#333"/><path d="M1115.24 1699.73h-.57v-1.05h.57zm-.52-1v.95h.47v-.95z" stroke="#333" stroke-width=".05" fill="#333"/><use xlink:href="#F" transform="matrix(1,0,0,1,1342.6989349198427,1658.1097022995511) translate(0 14.4)"/><use xlink:href="#G" transform="matrix(1,0,0,1,1114.1989349198427,1703.2097022995513) translate(0 14.4)"/><use xlink:href="#H" transform="matrix(1,0,0,1,1194.4489349198427,1688.4097022995513) translate(0.005000000000002558 14.4)"/><use xlink:href="#I" transform="matrix(1,0,0,1,1194.4489349198427,1688.4097022995513) translate(15.505000000000003 14.4)"/><path d="M1555.2 868.7h137" stroke="#333" fill="none"/><path d="M1555.2 869.2h-.5v-1h.5zM1692.7 869.2h-.52v-1h.52z" stroke="#333" stroke-width=".05" fill="#333"/><use xlink:href="#F" transform="matrix(1,0,0,1,1554.6989349198427,872.7097022995513) translate(0 14.4)"/><use xlink:href="#J" transform="matrix(1,0,0,1,1666.1989349198427,843.1097022995514) translate(0 14.4)"/><path d="M1773.7 941.2v115" stroke="#333" fill="none"/><path d="M1774.2 941.22h-1v-.5h1zM1774.2 1056.7h-1v-.5h1z" stroke="#333" stroke-width=".05" fill="#333"/><use xlink:href="#F" transform="matrix(1,0,0,1,1755.6989349198425,939.9097022995513) translate(0 14.4)"/><use xlink:href="#F" transform="matrix(1,0,0,1,1781.6989349198425,1035.9097022995513) translate(0 14.4)"/><path d="M1855.2 868.7h117" stroke="#333" fill="none"/><path d="M1855.2 869.2h-.5v-1h.5zM1972.7 869.2h-.5v-1h.5z" stroke="#333" stroke-width=".05" fill="#333"/><use xlink:href="#F" transform="matrix(1,0,0,1,1854.698934919843,872.7097022995514) translate(0 14.4)"/><use xlink:href="#K" transform="matrix(1,0,0,1,1942.698934919843,843.1097022995514) translate(0 14.4)"/><path d="M2072.2 1128.7h-217" stroke="#333" fill="none"/><path d="M2072.7 1129.2h-.5v-1h.5zM1855.2 1129.2h-.5v-1h.5z" stroke="#333" stroke-width=".05" fill="#333"/><use xlink:href="#J" transform="matrix(1,0,0,1,2046.198934919843,1103.1097022995514) translate(0 14.4)"/><use xlink:href="#J" transform="matrix(1,0,0,1,1854.1989349198427,1132.7097022995513) translate(0 14.4)"/><path d="M2092.86 1337.03v-39.2a.3.3 0 0 0-.3-.3.3.3 0 0 1-.28-.3v-44.52a12 12 0 0 0-12-12H1858.7a12 12 0 0 1-12-12v-27.5" stroke="#333" fill="none"/><path d="M2093.36 1337.53h-1v-.52h1zM1847.2 1201.22h-1v-.5h1z" stroke="#333" stroke-width=".05" fill="#333"/><use xlink:href="#J" transform="matrix(1,0,0,1,1854.6989349198427,1189.9097022995513) translate(0 14.4)"/><use xlink:href="#J" transform="matrix(1,0,0,1,2057.8642892505513,1316.7266314334095) translate(0 14.4)"/><path d="M1393.7 797.7h160v142h-160z" stroke="#333" stroke-width="2" fill="#fff"/><use xlink:href="#e" transform="matrix(1,0,0,1,1401.6989349198427,805.7097022995512) translate(28.574999999999996 55.8)"/><use xlink:href="#L" transform="matrix(1,0,0,1,1401.6989349198427,805.7097022995512) translate(38.525 77.4)"/><path d="M1403.7 798.9h140v60h-140z" stroke="#000" stroke-opacity="0" stroke-width="2" fill="#fff" fill-opacity="0"/><use xlink:href="#M" transform="matrix(1,0,0,1,1408.6989349198427,803.8927731656928) translate(14.938580246913588 26.469444444444445)"/><use xlink:href="#N" transform="matrix(1,0,0,1,1408.6989349198427,803.8927731656928) translate(63.136111111111106 26.469444444444445)"/><path d="M1773.7 796.2v-154a12 12 0 0 1 12-12h186.5" stroke="#333" fill="none"/><path d="M1774.2 796.7h-1v-.5h1zM1972.7 630.7h-.5v-1h.5z" stroke="#333" stroke-width=".05" fill="#333"/><use xlink:href="#F" transform="matrix(1,0,0,1,1781.6989349198425,775.9097022995513) translate(0 14.4)"/><use xlink:href="#K" transform="matrix(1,0,0,1,1942.698934919843,604.6097022995511) translate(0 14.4)"/><path d="M1972.2 438.2h-222.32a12 12 0 0 0-12 12v346" stroke="#333" fill="none"/><path d="M1972.7 438.7h-.5v-1h.5zM1738.38 796.7h-1v-.5h1z" stroke="#333" stroke-width=".05" fill="#333"/><use xlink:href="#K" transform="matrix(1,0,0,1,1942.698934919843,412.6097022995512) translate(0 14.4)"/><use xlink:href="#F" transform="matrix(1,0,0,1,1745.8843138987818,775.9097022995511) translate(0 14.4)"/><path d="M1717.9 1616.2v-415" stroke="#333" fill="none"/><path d="M1718.4 1616.7h-1v-.5h1zM1718.4 1201.22h-1v-.5h1z" stroke="#333" stroke-width=".05" fill="#333"/><use xlink:href="#J" transform="matrix(1,0,0,1,1725.8978367211746,1595.9097022995513) translate(0 14.4)"/><use xlink:href="#F" transform="matrix(1,0,0,1,1699.8978367211746,1199.9097022995513) translate(0 14.4)"/><path d="M1433.7 1637.2v-227.5a12 12 0 0 1 12-12h173.16a12 12 0 0 0 12-12v-209.74a12 12 0 0 1 12-12h49.34" stroke="#333" fill="none"/><path d="M1434.2 1637.7h-1v-.5h1zM1692.7 1164.46h-.5v-1h.5z" stroke="#333" stroke-width=".05" fill="#333"/><use xlink:href="#J" transform="matrix(1,0,0,1,1441.6989349198427,1616.9097022995513) translate(0 14.4)"/><use xlink:href="#F" transform="matrix(1,0,0,1,1683.6989349198425,1138.3593090233007) translate(0 14.4)"/><path d="M1700.5 362.88V796.2" stroke="#333" fill="none"/><path d="M1701 362.9h-1v-.52h1zM1701 796.7h-1v-.5h1z" stroke="#333" stroke-width=".05" fill="#333"/><use xlink:href="#K" transform="matrix(1,0,0,1,1662.4954134473828,361.5763689662178) translate(0 14.4)"/><use xlink:href="#F" transform="matrix(1,0,0,1,1708.4954134473828,775.9097022995514) translate(0 14.4)"/><path d="M1475.2 1068.7h217" stroke="#333" fill="none"/><path d="M1475.2 1069.2h-.5v-1h.5zM1692.7 1069.2h-.5v-1h.5z" stroke="#333" stroke-width=".05" fill="#333"/><use xlink:href="#J" transform="matrix(1,0,0,1,1474.1989349198425,1072.7097022995515) translate(0 14.4)"/><g><use xlink:href="#F" transform="matrix(1,0,0,1,1682.6989349198425,1043.1097022995514) translate(0 14.4)"/></g><path d="M1475.2 1259.7h96.5a12 12 0 0 0 12-12v-107a12 12 0 0 1 12-12h96.5" stroke="#333" fill="none"/><path d="M1475.2 1260.2h-.5v-1h.5zM1692.7 1129.2h-.5v-1h.5z" stroke="#333" stroke-width=".05" fill="#333"/><g><use xlink:href="#J" transform="matrix(1,0,0,1,1474.1989349198425,1263.7097022995513) translate(0 14.4)"/></g><g><use xlink:href="#F" transform="matrix(1,0,0,1,1664.925931592824,1103.1097022995514) translate(0 14.4)"/></g><path d="M1275.2 867.2h117" stroke="#3a414a" fill="none"/><path d="M1275.2 867.7h-.5v-1h.5zM1392.7 867.7h-.5v-1h.5z" stroke="#3a414a" stroke-width=".05" fill="#3a414a"/><g><use xlink:href="#J" transform="matrix(1,0,0,1,1274.0916144392552,841.6097022995514) translate(0 14.4)"/></g><g><use xlink:href="#F" transform="matrix(1,0,0,1,1382.6989349198427,841.6097022995514) translate(0 14.4)"/></g><path d="M833.7 687.2h160v121h-160z" stroke="#333" stroke-width="2" fill="#fff"/><g><use xlink:href="#O" transform="matrix(1,0,0,1,841.6989349198427,695.2097022995513) translate(13.574999999999996 56.1)"/><use xlink:href="#P" transform="matrix(1,0,0,1,841.6989349198427,695.2097022995513) translate(64.525 56.1)"/></g><path d="M995.2 747.7h409.47a6 6 0 0 1 6 6v44.7" stroke="#3a414a" fill="none"/><path d="M995.2 748.2h-.5v-1h.5zM1411.17 798.9h-1v-.52h1z" stroke="#3a414a" stroke-width=".05" fill="#3a414a"/><g><use xlink:href="#J" transform="matrix(1,0,0,1,994.1989349198426,751.7097022995514) translate(0 14.4)"/></g><g><use xlink:href="#F" transform="matrix(1,0,0,1,1418.6666666666665,777.092773165693) translate(0 14.4)"/></g><path d="M839.7 504.2h160v120h-160z" stroke="#3a414a" fill="#fff"/><g><use xlink:href="#Q" transform="matrix(1,0,0,1,851.6989349198427,516.209702299551) translate(40.22222222222222 26.77777777777778)"/><use xlink:href="#R" transform="matrix(1,0,0,1,851.6989349198427,516.209702299551) translate(18.617283950617278 53.44444444444445)"/><use xlink:href="#S" transform="matrix(1,0,0,1,851.6989349198427,516.209702299551) translate(22.969135802469133 80.11111111111111)"/></g><path d="M1000.7 564.2h498.63a6 6 0 0 1 6 6v226" stroke="#3a414a" fill="none"/><path d="M1000.7 564.7h-.5v-1h.5zM1505.83 796.7h-1v-.5h1z" stroke="#3a414a" stroke-width=".05" fill="#3a414a"/><g><use xlink:href="#J" transform="matrix(1,0,0,1,1000.6989349198427,568.209702299551) translate(0 14.4)"/></g><g><use xlink:href="#F" transform="matrix(1,0,0,1,1513.3333333333335,775.9097022995511) translate(0 14.4)"/></g><defs><path fill="#333" d="M127-220V0H93v-220H8v-28h204v28h-85" id="T"/><path fill="#333" d="M114-163C36-179 61-72 57 0H25l-1-190h30c1 12-1 29 2 39 6-27 23-49 58-41v29" id="U"/><path fill="#333" d="M84 4C-5 8 30-112 23-190h32v120c0 31 7 50 39 49 72-2 45-101 50-169h31l1 190h-30c-1-10 1-25-2-33-11 22-28 36-60 37" id="V"/><path fill="#333" d="M135-143c-3-34-86-38-87 0 15 53 115 12 119 90S17 21 10-45l28-5c4 36 97 45 98 0-10-56-113-15-118-90-4-57 82-63 122-42 12 7 21 19 24 35" id="W"/><path fill="#333" d="M59-47c-2 24 18 29 38 22v24C64 9 27 4 27-40v-127H5v-23h24l9-43h21v43h35v23H59v120" id="X"/><path fill="#333" d="M206 0h-36l-40-164L89 0H53L-1-190h32L70-26l43-164h34l41 164 42-164h31" id="Y"/><path fill="#333" d="M100-194c62-1 85 37 85 99 1 63-27 99-86 99S16-35 15-95c0-66 28-99 85-99zM99-20c44 1 53-31 53-75 0-43-8-75-51-75s-53 32-53 75 10 74 51 75" id="Z"/><path fill="#333" d="M106-169C34-169 62-67 57 0H25v-261h32l-1 103c12-21 28-36 61-36 89 0 53 116 60 194h-32v-121c2-32-8-49-39-48" id="aa"/><path fill="#333" d="M24-231v-30h32v30H24zM24 0v-190h32V0H24" id="ab"/><path fill="#333" d="M117-194c89-4 53 116 60 194h-32v-121c0-31-8-49-39-48C34-167 62-67 57 0H25l-1-190h30c1 10-1 24 2 32 11-22 29-35 61-36" id="ac"/><path fill="#333" d="M100-194c63 0 86 42 84 106H49c0 40 14 67 53 68 26 1 43-12 49-29l28 8c-11 28-37 45-77 45C44 4 14-33 15-96c1-61 26-98 85-98zm52 81c6-60-76-77-97-28-3 7-6 17-6 28h103" id="ad"/><g id="a"><use transform="matrix(0.05,0,0,0.05,0,0)" xlink:href="#T"/><use transform="matrix(0.05,0,0,0.05,10.3,0)" xlink:href="#U"/><use transform="matrix(0.05,0,0,0.05,16.25,0)" xlink:href="#V"/><use transform="matrix(0.05,0,0,0.05,26.25,0)" xlink:href="#W"/><use transform="matrix(0.05,0,0,0.05,35.25,0)" xlink:href="#X"/><use transform="matrix(0.05,0,0,0.05,40.25,0)" xlink:href="#Y"/><use transform="matrix(0.05,0,0,0.05,53.2,0)" xlink:href="#Z"/><use transform="matrix(0.05,0,0,0.05,63.2,0)" xlink:href="#U"/><use transform="matrix(0.05,0,0,0.05,69.15,0)" xlink:href="#X"/><use transform="matrix(0.05,0,0,0.05,74.15,0)" xlink:href="#aa"/><use transform="matrix(0.05,0,0,0.05,84.15,0)" xlink:href="#ab"/><use transform="matrix(0.05,0,0,0.05,88.10000000000001,0)" xlink:href="#ac"/><use transform="matrix(0.05,0,0,0.05,98.10000000000001,0)" xlink:href="#ad"/><use transform="matrix(0.05,0,0,0.05,108.10000000000001,0)" xlink:href="#W"/><use transform="matrix(0.05,0,0,0.05,117.10000000000001,0)" xlink:href="#W"/></g><path fill="#333" d="M101-234c-31-9-42 10-38 44h38v23H63V0H32v-167H5v-23h27c-7-52 17-82 69-68v24" id="ae"/><g id="b"><use transform="matrix(0.05,0,0,0.05,0,0)" xlink:href="#Z"/><use transform="matrix(0.05,0,0,0.05,10,0)" xlink:href="#ae"/></g><path fill="#333" d="M205 0l-28-72H64L36 0H1l101-248h38L239 0h-34zm-38-99l-47-123c-12 45-31 82-46 123h93" id="af"/><path fill="#333" d="M96-169c-40 0-48 33-48 73s9 75 48 75c24 0 41-14 43-38l32 2c-6 37-31 61-74 61-59 0-76-41-82-99-10-93 101-131 147-64 4 7 5 14 7 22l-32 3c-4-21-16-35-41-35" id="ag"/><path fill="#333" d="M177-190C167-65 218 103 67 71c-23-6-38-20-44-43l32-5c15 47 100 32 89-28v-30C133-14 115 1 83 1 29 1 15-40 15-95c0-56 16-97 71-98 29-1 48 16 59 35 1-10 0-23 2-32h30zM94-22c36 0 50-32 50-73 0-42-14-75-50-75-39 0-46 34-46 75s6 73 46 73" id="ah"/><g id="c"><use transform="matrix(0.05,0,0,0.05,0,0)" xlink:href="#af"/><use transform="matrix(0.05,0,0,0.05,12,0)" xlink:href="#ag"/><use transform="matrix(0.05,0,0,0.05,21,0)" xlink:href="#ag"/><use transform="matrix(0.05,0,0,0.05,30,0)" xlink:href="#Z"/><use transform="matrix(0.05,0,0,0.05,40,0)" xlink:href="#V"/><use transform="matrix(0.05,0,0,0.05,50,0)" xlink:href="#ac"/><use transform="matrix(0.05,0,0,0.05,60,0)" xlink:href="#X"/><use transform="matrix(0.05,0,0,0.05,65,0)" xlink:href="#ab"/><use transform="matrix(0.05,0,0,0.05,68.95,0)" xlink:href="#ac"/><use transform="matrix(0.05,0,0,0.05,78.95,0)" xlink:href="#ah"/></g><path fill="#333" d="M233-177c-1 41-23 64-60 70L243 0h-38l-65-103H63V0H30v-248c88 3 205-21 203 71zM63-129c60-2 137 13 137-47 0-61-80-42-137-45v92" id="ai"/><path fill="#333" d="M115-194c55 1 70 41 70 98S169 2 115 4C84 4 66-9 55-30l1 105H24l-1-265h31l2 30c10-21 28-34 59-34zm-8 174c40 0 45-34 45-75s-6-73-45-74c-42 0-51 32-51 76 0 43 10 73 51 73" id="aj"/><g id="d"><use transform="matrix(0.05,0,0,0.05,0,0)" xlink:href="#ai"/><use transform="matrix(0.05,0,0,0.05,12.950000000000001,0)" xlink:href="#ad"/><use transform="matrix(0.05,0,0,0.05,22.950000000000003,0)" xlink:href="#aj"/><use transform="matrix(0.05,0,0,0.05,32.95,0)" xlink:href="#Z"/><use transform="matrix(0.05,0,0,0.05,42.95,0)" xlink:href="#U"/><use transform="matrix(0.05,0,0,0.05,48.900000000000006,0)" xlink:href="#X"/></g><path fill="#333" d="M145-31C134-9 116 4 85 4 32 4 16-35 15-94c0-59 17-99 70-100 32-1 48 14 60 33 0-11-1-24 2-32h30l-1 268h-32zM93-21c41 0 51-33 51-76s-8-73-50-73c-40 0-46 35-46 75s5 74 45 74" id="ak"/><g id="e"><use transform="matrix(0.05,0,0,0.05,0,0)" xlink:href="#af"/><use transform="matrix(0.05,0,0,0.05,12,0)" xlink:href="#ag"/><use transform="matrix(0.05,0,0,0.05,21,0)" xlink:href="#ak"/><use transform="matrix(0.05,0,0,0.05,31,0)" xlink:href="#V"/><use transform="matrix(0.05,0,0,0.05,41,0)" xlink:href="#ab"/><use transform="matrix(0.05,0,0,0.05,44.95,0)" xlink:href="#W"/><use transform="matrix(0.05,0,0,0.05,53.95,0)" xlink:href="#ab"/><use transform="matrix(0.05,0,0,0.05,57.900000000000006,0)" xlink:href="#X"/><use transform="matrix(0.05,0,0,0.05,62.900000000000006,0)" xlink:href="#ab"/><use transform="matrix(0.05,0,0,0.05,66.85000000000001,0)" xlink:href="#Z"/><use transform="matrix(0.05,0,0,0.05,76.85000000000001,0)" xlink:href="#ac"/></g><path fill="#333" d="M212-179c-10-28-35-45-73-45-59 0-87 40-87 99 0 60 29 101 89 101 43 0 62-24 78-52l27 14C228-24 195 4 139 4 59 4 22-46 18-125c-6-104 99-153 187-111 19 9 31 26 39 46" id="al"/><path fill="#333" d="M141-36C126-15 110 5 73 4 37 3 15-17 15-53c-1-64 63-63 125-63 3-35-9-54-41-54-24 1-41 7-42 31l-33-3c5-37 33-52 76-52 45 0 72 20 72 64v82c-1 20 7 32 28 27v20c-31 9-61-2-59-35zM48-53c0 20 12 33 32 33 41-3 63-29 60-74-43 2-92-5-92 41" id="am"/><path fill="#333" d="M85-194c31 0 48 13 60 33l-1-100h32l1 261h-30c-2-10 0-23-3-31C134-8 116 4 85 4 32 4 16-35 15-94c0-66 23-100 70-100zm9 24c-40 0-46 34-46 75 0 40 6 74 45 74 42 0 51-32 51-76 0-42-9-74-50-73" id="an"/><g id="f"><use transform="matrix(0.05,0,0,0.05,0,0)" xlink:href="#al"/><use transform="matrix(0.05,0,0,0.05,12.950000000000001,0)" xlink:href="#am"/><use transform="matrix(0.05,0,0,0.05,22.950000000000003,0)" xlink:href="#ac"/><use transform="matrix(0.05,0,0,0.05,32.95,0)" xlink:href="#an"/><use transform="matrix(0.05,0,0,0.05,42.95,0)" xlink:href="#ab"/><use transform="matrix(0.05,0,0,0.05,46.900000000000006,0)" xlink:href="#an"/><use transform="matrix(0.05,0,0,0.05,56.900000000000006,0)" xlink:href="#am"/><use transform="matrix(0.05,0,0,0.05,66.9,0)" xlink:href="#X"/><use transform="matrix(0.05,0,0,0.05,71.9,0)" xlink:href="#ad"/></g><g id="g"><use transform="matrix(0.05,0,0,0.05,0,0)" xlink:href="#al"/><use transform="matrix(0.05,0,0,0.05,12.950000000000001,0)" xlink:href="#am"/><use transform="matrix(0.05,0,0,0.05,22.950000000000003,0)" xlink:href="#ac"/><use transform="matrix(0.05,0,0,0.05,32.95,0)" xlink:href="#an"/><use transform="matrix(0.05,0,0,0.05,42.95,0)" xlink:href="#ab"/><use transform="matrix(0.05,0,0,0.05,46.900000000000006,0)" xlink:href="#an"/><use transform="matrix(0.05,0,0,0.05,56.900000000000006,0)" xlink:href="#am"/><use transform="matrix(0.05,0,0,0.05,66.9,0)" xlink:href="#X"/><use transform="matrix(0.05,0,0,0.05,71.9,0)" xlink:href="#ad"/></g><path fill="#333" d="M140-251c81 0 123 46 123 126C263-46 219 4 140 4 59 4 17-45 17-125s42-126 123-126zm0 227c63 0 89-41 89-101s-29-99-89-99c-61 0-89 39-89 99S79-25 140-24" id="ao"/><path fill="#333" d="M108 0H70L1-190h34L89-25l56-165h34" id="ap"/><g id="h"><use transform="matrix(0.05,0,0,0.05,0,0)" xlink:href="#ao"/><use transform="matrix(0.05,0,0,0.05,14,0)" xlink:href="#ap"/><use transform="matrix(0.05,0,0,0.05,23,0)" xlink:href="#ad"/><use transform="matrix(0.05,0,0,0.05,33,0)" xlink:href="#U"/><use transform="matrix(0.05,0,0,0.05,38.95,0)" xlink:href="#ap"/><use transform="matrix(0.05,0,0,0.05,47.95,0)" xlink:href="#ab"/><use transform="matrix(0.05,0,0,0.05,51.900000000000006,0)" xlink:href="#ad"/><use transform="matrix(0.05,0,0,0.05,61.900000000000006,0)" xlink:href="#Y"/></g><g id="i"><use transform="matrix(0.05,0,0,0.05,0,0)" xlink:href="#al"/><use transform="matrix(0.05,0,0,0.05,12.950000000000001,0)" xlink:href="#Z"/><use transform="matrix(0.05,0,0,0.05,22.950000000000003,0)" xlink:href="#ac"/><use transform="matrix(0.05,0,0,0.05,32.95,0)" xlink:href="#X"/><use transform="matrix(0.05,0,0,0.05,37.95,0)" xlink:href="#am"/><use transform="matrix(0.05,0,0,0.05,47.95,0)" xlink:href="#ag"/><use transform="matrix(0.05,0,0,0.05,56.95,0)" xlink:href="#X"/></g><path fill="#333" d="M16-82v-28h88v28H16" id="aq"/><path fill="#333" d="M160-131c35 5 61 23 61 61C221 17 115-2 30 0v-248c76 3 177-17 177 60 0 33-19 50-47 57zm-97-11c50-1 110 9 110-42 0-47-63-36-110-37v79zm0 115c55-2 124 14 124-45 0-56-70-42-124-44v89" id="ar"/><g id="j"><use transform="matrix(0.05,0,0,0.05,0,0)" xlink:href="#al"/><use transform="matrix(0.05,0,0,0.05,12.950000000000001,0)" xlink:href="#U"/><use transform="matrix(0.05,0,0,0.05,18.900000000000002,0)" xlink:href="#Z"/><use transform="matrix(0.05,0,0,0.05,28.900000000000002,0)" xlink:href="#W"/><use transform="matrix(0.05,0,0,0.05,37.900000000000006,0)" xlink:href="#W"/><use transform="matrix(0.05,0,0,0.05,46.900000000000006,0)" xlink:href="#aq"/><use transform="matrix(0.05,0,0,0.05,52.85,0)" xlink:href="#ar"/><use transform="matrix(0.05,0,0,0.05,64.85000000000001,0)" xlink:href="#Z"/><use transform="matrix(0.05,0,0,0.05,74.85000000000001,0)" xlink:href="#U"/><use transform="matrix(0.05,0,0,0.05,80.80000000000001,0)" xlink:href="#an"/><use transform="matrix(0.05,0,0,0.05,90.80000000000001,0)" xlink:href="#ad"/><use transform="matrix(0.05,0,0,0.05,100.80000000000001,0)" xlink:href="#U"/></g><path fill="#333" d="M30 0v-248h33v221h125V0H30" id="as"/><path fill="#333" d="M24 0v-261h32V0H24" id="at"/><g id="k"><use transform="matrix(0.05,0,0,0.05,0,0)" xlink:href="#as"/><use transform="matrix(0.05,0,0,0.05,10,0)" xlink:href="#ad"/><use transform="matrix(0.05,0,0,0.05,20,0)" xlink:href="#ah"/><use transform="matrix(0.05,0,0,0.05,30,0)" xlink:href="#am"/><use transform="matrix(0.05,0,0,0.05,40,0)" xlink:href="#at"/></g><g id="l"><use transform="matrix(0.05,0,0,0.05,0,0)" xlink:href="#ai"/><use transform="matrix(0.05,0,0,0.05,12.950000000000001,0)" xlink:href="#ad"/><use transform="matrix(0.05,0,0,0.05,22.950000000000003,0)" xlink:href="#ah"/><use transform="matrix(0.05,0,0,0.05,32.95,0)" xlink:href="#V"/><use transform="matrix(0.05,0,0,0.05,42.95,0)" xlink:href="#at"/><use transform="matrix(0.05,0,0,0.05,46.900000000000006,0)" xlink:href="#am"/><use transform="matrix(0.05,0,0,0.05,56.900000000000006,0)" xlink:href="#X"/><use transform="matrix(0.05,0,0,0.05,61.900000000000006,0)" xlink:href="#ab"/><use transform="matrix(0.05,0,0,0.05,65.85000000000001,0)" xlink:href="#Z"/><use transform="matrix(0.05,0,0,0.05,75.85000000000001,0)" xlink:href="#ac"/><use transform="matrix(0.05,0,0,0.05,85.85000000000001,0)" xlink:href="#W"/></g><g id="m"><use transform="matrix(0.05,0,0,0.05,0,0)" xlink:href="#al"/><use transform="matrix(0.05,0,0,0.05,12.950000000000001,0)" xlink:href="#V"/><use transform="matrix(0.05,0,0,0.05,22.950000000000003,0)" xlink:href="#at"/><use transform="matrix(0.05,0,0,0.05,26.900000000000002,0)" xlink:href="#X"/><use transform="matrix(0.05,0,0,0.05,31.900000000000002,0)" xlink:href="#V"/><use transform="matrix(0.05,0,0,0.05,41.900000000000006,0)" xlink:href="#U"/><use transform="matrix(0.05,0,0,0.05,47.85000000000001,0)" xlink:href="#am"/><use transform="matrix(0.05,0,0,0.05,57.85,0)" xlink:href="#at"/></g><path fill="#333" d="M30-248c118-7 216 8 213 122C240-48 200 0 122 0H30v-248zM63-27c89 8 146-16 146-99s-60-101-146-95v194" id="au"/><g id="n"><use transform="matrix(0.05,0,0,0.05,0,0)" xlink:href="#au"/><use transform="matrix(0.05,0,0,0.05,12.950000000000001,0)" xlink:href="#ad"/><use transform="matrix(0.05,0,0,0.05,22.950000000000003,0)" xlink:href="#am"/><use transform="matrix(0.05,0,0,0.05,32.95,0)" xlink:href="#at"/></g><path fill="#333" d="M30 0v-248h187v28H63v79h144v27H63v87h162V0H30" id="av"/><path fill="#333" d="M210-169c-67 3-38 105-44 169h-31v-121c0-29-5-50-35-48C34-165 62-65 56 0H25l-1-190h30c1 10-1 24 2 32 10-44 99-50 107 0 11-21 27-35 58-36 85-2 47 119 55 194h-31v-121c0-29-5-49-35-48" id="aw"/><path fill="#333" d="M179-190L93 31C79 59 56 82 12 73V49c39 6 53-20 64-50L1-190h34L92-34l54-156h33" id="ax"/><g id="o"><use transform="matrix(0.05,0,0,0.05,0,0)" xlink:href="#av"/><use transform="matrix(0.05,0,0,0.05,12,0)" xlink:href="#aw"/><use transform="matrix(0.05,0,0,0.05,26.950000000000003,0)" xlink:href="#aj"/><use transform="matrix(0.05,0,0,0.05,36.95,0)" xlink:href="#at"/><use transform="matrix(0.05,0,0,0.05,40.900000000000006,0)" xlink:href="#Z"/><use transform="matrix(0.05,0,0,0.05,50.900000000000006,0)" xlink:href="#ax"/><use transform="matrix(0.05,0,0,0.05,59.900000000000006,0)" xlink:href="#ad"/><use transform="matrix(0.05,0,0,0.05,69.9,0)" xlink:href="#ad"/></g><path fill="#333" d="M33 0v-248h34V0H33" id="ay"/><g id="p"><use transform="matrix(0.05,0,0,0.05,0,0)" xlink:href="#ay"/><use transform="matrix(0.05,0,0,0.05,5,0)" xlink:href="#ac"/><use transform="matrix(0.05,0,0,0.05,15,0)" xlink:href="#X"/><use transform="matrix(0.05,0,0,0.05,20,0)" xlink:href="#ad"/><use transform="matrix(0.05,0,0,0.05,30,0)" xlink:href="#U"/><use transform="matrix(0.05,0,0,0.05,35.95,0)" xlink:href="#ap"/><use transform="matrix(0.05,0,0,0.05,44.95,0)" xlink:href="#ab"/><use transform="matrix(0.05,0,0,0.05,48.900000000000006,0)" xlink:href="#ad"/><use transform="matrix(0.05,0,0,0.05,58.900000000000006,0)" xlink:href="#Y"/></g><g id="q"><use transform="matrix(0.05,0,0,0.05,0,0)" xlink:href="#as"/><use transform="matrix(0.05,0,0,0.05,10,0)" xlink:href="#ad"/><use transform="matrix(0.05,0,0,0.05,20,0)" xlink:href="#X"/><use transform="matrix(0.05,0,0,0.05,25,0)" xlink:href="#X"/><use transform="matrix(0.05,0,0,0.05,30,0)" xlink:href="#ad"/><use transform="matrix(0.05,0,0,0.05,40,0)" xlink:href="#U"/></g><g id="r"><use transform="matrix(0.05,0,0,0.05,0,0)" xlink:href="#ay"/><use transform="matrix(0.05,0,0,0.05,5,0)" xlink:href="#ac"/><use transform="matrix(0.05,0,0,0.05,15,0)" xlink:href="#X"/><use transform="matrix(0.05,0,0,0.05,20,0)" xlink:href="#ad"/><use transform="matrix(0.05,0,0,0.05,30,0)" xlink:href="#ac"/><use transform="matrix(0.05,0,0,0.05,40,0)" xlink:href="#X"/></g><path fill="#333" d="M240 0l2-218c-23 76-54 145-80 218h-23L58-218 59 0H30v-248h44l77 211c21-75 51-140 76-211h43V0h-30" id="az"/><path fill="#333" d="M143 0L79-87 56-68V0H24v-261h32v163l83-92h37l-77 82L181 0h-38" id="aA"/><g id="s"><use transform="matrix(0.05,0,0,0.05,0,0)" xlink:href="#az"/><use transform="matrix(0.05,0,0,0.05,14.950000000000001,0)" xlink:href="#am"/><use transform="matrix(0.05,0,0,0.05,24.950000000000003,0)" xlink:href="#U"/><use transform="matrix(0.05,0,0,0.05,30.900000000000002,0)" xlink:href="#aA"/><use transform="matrix(0.05,0,0,0.05,39.900000000000006,0)" xlink:href="#ad"/><use transform="matrix(0.05,0,0,0.05,49.900000000000006,0)" xlink:href="#X"/></g><g id="t"><use transform="matrix(0.05,0,0,0.05,0,0)" xlink:href="#av"/><use transform="matrix(0.05,0,0,0.05,12,0)" xlink:href="#ac"/><use transform="matrix(0.05,0,0,0.05,22,0)" xlink:href="#ap"/><use transform="matrix(0.05,0,0,0.05,31,0)" xlink:href="#ab"/><use transform="matrix(0.05,0,0,0.05,34.95,0)" xlink:href="#U"/><use transform="matrix(0.05,0,0,0.05,40.900000000000006,0)" xlink:href="#Z"/><use transform="matrix(0.05,0,0,0.05,50.900000000000006,0)" xlink:href="#ac"/><use transform="matrix(0.05,0,0,0.05,60.900000000000006,0)" xlink:href="#aw"/><use transform="matrix(0.05,0,0,0.05,75.85000000000001,0)" xlink:href="#ad"/><use transform="matrix(0.05,0,0,0.05,85.85000000000001,0)" xlink:href="#ac"/><use transform="matrix(0.05,0,0,0.05,95.85000000000001,0)" xlink:href="#X"/></g><g id="u"><use transform="matrix(0.05,0,0,0.05,0,0)" xlink:href="#af"/><use transform="matrix(0.05,0,0,0.05,12,0)" xlink:href="#ac"/><use transform="matrix(0.05,0,0,0.05,22,0)" xlink:href="#am"/><use transform="matrix(0.05,0,0,0.05,32,0)" xlink:href="#at"/><use transform="matrix(0.05,0,0,0.05,35.95,0)" xlink:href="#ax"/><use transform="matrix(0.05,0,0,0.05,44.95,0)" xlink:href="#W"/><use transform="matrix(0.05,0,0,0.05,53.95,0)" xlink:href="#ab"/><use transform="matrix(0.05,0,0,0.05,57.900000000000006,0)" xlink:href="#W"/></g><path fill="#333" d="M190 0L58-211 59 0H30v-248h39L202-35l-2-213h31V0h-41" id="aB"/><g id="v"><use transform="matrix(0.05,0,0,0.05,0,0)" xlink:href="#aB"/><use transform="matrix(0.05,0,0,0.05,12.950000000000001,0)" xlink:href="#am"/><use transform="matrix(0.05,0,0,0.05,22.950000000000003,0)" xlink:href="#X"/><use transform="matrix(0.05,0,0,0.05,27.950000000000003,0)" xlink:href="#ab"/><use transform="matrix(0.05,0,0,0.05,31.900000000000002,0)" xlink:href="#Z"/><use transform="matrix(0.05,0,0,0.05,41.900000000000006,0)" xlink:href="#ac"/><use transform="matrix(0.05,0,0,0.05,51.900000000000006,0)" xlink:href="#am"/><use transform="matrix(0.05,0,0,0.05,61.900000000000006,0)" xlink:href="#at"/></g><path fill="#333" d="M30-248c87 1 191-15 191 75 0 78-77 80-158 76V0H30v-248zm33 125c57 0 124 11 124-50 0-59-68-47-124-48v98" id="aC"/><g id="w"><use transform="matrix(0.05,0,0,0.05,0,0)" xlink:href="#aC"/><use transform="matrix(0.05,0,0,0.05,12,0)" xlink:href="#Z"/><use transform="matrix(0.05,0,0,0.05,22,0)" xlink:href="#at"/><use transform="matrix(0.05,0,0,0.05,25.950000000000003,0)" xlink:href="#ab"/><use transform="matrix(0.05,0,0,0.05,29.899999999999995,0)" xlink:href="#ag"/><use transform="matrix(0.05,0,0,0.05,38.9,0)" xlink:href="#ab"/><use transform="matrix(0.05,0,0,0.05,42.85,0)" xlink:href="#ad"/><use transform="matrix(0.05,0,0,0.05,52.85,0)" xlink:href="#W"/></g><g id="x"><use transform="matrix(0.05,0,0,0.05,0,0)" xlink:href="#ao"/><use transform="matrix(0.05,0,0,0.05,14,0)" xlink:href="#U"/><use transform="matrix(0.05,0,0,0.05,19.95,0)" xlink:href="#an"/><use transform="matrix(0.05,0,0,0.05,29.950000000000003,0)" xlink:href="#ad"/><use transform="matrix(0.05,0,0,0.05,39.95,0)" xlink:href="#U"/></g><g id="y"><use transform="matrix(0.05,0,0,0.05,0,0)" xlink:href="#ar"/><use transform="matrix(0.05,0,0,0.05,12,0)" xlink:href="#Z"/><use transform="matrix(0.05,0,0,0.05,22,0)" xlink:href="#Z"/><use transform="matrix(0.05,0,0,0.05,32,0)" xlink:href="#aA"/></g><path fill="#333" d="M63-220v92h138v28H63V0H30v-248h175v28H63" id="aD"/><g id="z"><use transform="matrix(0.05,0,0,0.05,0,0)" xlink:href="#aD"/><use transform="matrix(0.05,0,0,0.05,10.950000000000001,0)" xlink:href="#Z"/><use transform="matrix(0.05,0,0,0.05,20.950000000000003,0)" xlink:href="#U"/><use transform="matrix(0.05,0,0,0.05,26.900000000000002,0)" xlink:href="#ad"/><use transform="matrix(0.05,0,0,0.05,36.900000000000006,0)" xlink:href="#ag"/><use transform="matrix(0.05,0,0,0.05,45.900000000000006,0)" xlink:href="#am"/><use transform="matrix(0.05,0,0,0.05,55.900000000000006,0)" xlink:href="#W"/><use transform="matrix(0.05,0,0,0.05,64.9,0)" xlink:href="#X"/></g><g id="A"><use transform="matrix(0.05,0,0,0.05,0,0)" xlink:href="#aC"/><use transform="matrix(0.05,0,0,0.05,12,0)" xlink:href="#V"/><use transform="matrix(0.05,0,0,0.05,22,0)" xlink:href="#U"/><use transform="matrix(0.05,0,0,0.05,27.950000000000003,0)" xlink:href="#ag"/><use transform="matrix(0.05,0,0,0.05,36.95,0)" xlink:href="#aa"/><use transform="matrix(0.05,0,0,0.05,46.95,0)" xlink:href="#am"/><use transform="matrix(0.05,0,0,0.05,56.95,0)" xlink:href="#W"/><use transform="matrix(0.05,0,0,0.05,65.95,0)" xlink:href="#ad"/></g><g id="B"><use transform="matrix(0.05,0,0,0.05,0,0)" xlink:href="#aC"/><use transform="matrix(0.05,0,0,0.05,12,0)" xlink:href="#U"/><use transform="matrix(0.05,0,0,0.05,17.95,0)" xlink:href="#ab"/><use transform="matrix(0.05,0,0,0.05,21.9,0)" xlink:href="#ag"/><use transform="matrix(0.05,0,0,0.05,30.899999999999995,0)" xlink:href="#ad"/></g><g id="C"><use transform="matrix(0.05,0,0,0.05,0,0)" xlink:href="#ai"/><use transform="matrix(0.05,0,0,0.05,12.950000000000001,0)" xlink:href="#am"/><use transform="matrix(0.05,0,0,0.05,22.950000000000003,0)" xlink:href="#ac"/><use transform="matrix(0.05,0,0,0.05,32.95,0)" xlink:href="#ah"/><use transform="matrix(0.05,0,0,0.05,42.95,0)" xlink:href="#ad"/></g><g id="D"><use transform="matrix(0.05,0,0,0.05,0,0)" xlink:href="#T"/><use transform="matrix(0.05,0,0,0.05,8.950000000000001,0)" xlink:href="#ad"/><use transform="matrix(0.05,0,0,0.05,18.950000000000003,0)" xlink:href="#U"/><use transform="matrix(0.05,0,0,0.05,24.900000000000002,0)" xlink:href="#aw"/></g><path fill="#333" d="M185-189c-5-48-123-54-124 2 14 75 158 14 163 119 3 78-121 87-175 55-17-10-28-26-33-46l33-7c5 56 141 63 141-1 0-78-155-14-162-118-5-82 145-84 179-34 5 7 8 16 11 25" id="aE"/><g id="E"><use transform="matrix(0.05,0,0,0.05,0,0)" xlink:href="#aE"/><use transform="matrix(0.05,0,0,0.05,12,0)" xlink:href="#aa"/><use transform="matrix(0.05,0,0,0.05,22,0)" xlink:href="#ad"/><use transform="matrix(0.05,0,0,0.05,32,0)" xlink:href="#ad"/><use transform="matrix(0.05,0,0,0.05,42,0)" xlink:href="#X"/></g><path d="M27 0v-27h64v-190l-56 39v-29l58-41h29v221h61V0H27" id="aF"/><use transform="matrix(0.05,0,0,0.05,0,0)" xlink:href="#aF" id="F"/><path d="M33 0v-38h34V0H33" id="aG"/><path d="M80-196l47-18 7 23-49 13 32 44-20 13-27-46-27 45-21-12 33-44-49-13 8-23 47 19-2-53h23" id="aH"/><g id="G"><use transform="matrix(0.05,0,0,0.05,0,0)" xlink:href="#aF"/><use transform="matrix(0.05,0,0,0.05,10,0)" xlink:href="#aG"/><use transform="matrix(0.05,0,0,0.05,15,0)" xlink:href="#aG"/><use transform="matrix(0.05,0,0,0.05,20,0)" xlink:href="#aH"/></g><path fill="#333" d="M18-100v-36l175-74v27L42-118l151 64v27" id="aI"/><use transform="matrix(0.05,0,0,0.05,0,0)" xlink:href="#aI" id="H"/><g id="I"><use transform="matrix(0.05,0,0,0.05,0,0)" xlink:href="#ag"/><use transform="matrix(0.05,0,0,0.05,9,0)" xlink:href="#Z"/><use transform="matrix(0.05,0,0,0.05,19,0)" xlink:href="#ac"/><use transform="matrix(0.05,0,0,0.05,29,0)" xlink:href="#an"/><use transform="matrix(0.05,0,0,0.05,39,0)" xlink:href="#V"/><use transform="matrix(0.05,0,0,0.05,49,0)" xlink:href="#ag"/><use transform="matrix(0.05,0,0,0.05,58,0)" xlink:href="#X"/></g><path d="M101-251c68 0 85 55 85 127S166 4 100 4C33 4 14-52 14-124c0-73 17-127 87-127zm-1 229c47 0 54-49 54-102s-4-102-53-102c-51 0-55 48-55 102 0 53 5 102 54 102" id="aJ"/><g id="J"><use transform="matrix(0.05,0,0,0.05,0,0)" xlink:href="#aJ"/><use transform="matrix(0.05,0,0,0.05,10,0)" xlink:href="#aG"/><use transform="matrix(0.05,0,0,0.05,15,0)" xlink:href="#aG"/><use transform="matrix(0.05,0,0,0.05,20,0)" xlink:href="#aH"/></g><g id="K"><use transform="matrix(0.05,0,0,0.05,0,0)" xlink:href="#aJ"/><use transform="matrix(0.05,0,0,0.05,10,0)" xlink:href="#aG"/><use transform="matrix(0.05,0,0,0.05,15,0)" xlink:href="#aG"/><use transform="matrix(0.05,0,0,0.05,20,0)" xlink:href="#aF"/></g><g id="L"><use transform="matrix(0.05,0,0,0.05,0,0)" xlink:href="#aE"/><use transform="matrix(0.05,0,0,0.05,12,0)" xlink:href="#X"/><use transform="matrix(0.05,0,0,0.05,17,0)" xlink:href="#U"/><use transform="matrix(0.05,0,0,0.05,22.95,0)" xlink:href="#am"/><use transform="matrix(0.05,0,0,0.05,32.95,0)" xlink:href="#X"/><use transform="matrix(0.05,0,0,0.05,37.95,0)" xlink:href="#ad"/><use transform="matrix(0.05,0,0,0.05,47.95,0)" xlink:href="#ah"/><use transform="matrix(0.05,0,0,0.05,57.95,0)" xlink:href="#ax"/></g><g id="M"><use transform="matrix(0.03765432098765432,0,0,0.03765432098765432,0,0)" xlink:href="#aI"/><use transform="matrix(0.03765432098765432,0,0,0.03765432098765432,7.9074074074074066,0)" xlink:href="#aI"/><use transform="matrix(0.03765432098765432,0,0,0.03765432098765432,15.814814814814813,0)" xlink:href="#ag"/><use transform="matrix(0.03765432098765432,0,0,0.03765432098765432,22.592592592592585,0)" xlink:href="#am"/><use transform="matrix(0.03765432098765432,0,0,0.03765432098765432,30.123456790123456,0)" xlink:href="#W"/><use transform="matrix(0.03765432098765432,0,0,0.03765432098765432,36.90123456790123,0)" xlink:href="#ad"/></g><path fill="#333" d="M115-194c53 0 69 39 70 98 0 66-23 100-70 100C84 3 66-7 56-30L54 0H23l1-261h32v101c10-23 28-34 59-34zm-8 174c40 0 45-34 45-75 0-40-5-75-45-74-42 0-51 32-51 76 0 43 10 73 51 73" id="aK"/><path fill="#333" d="M24-231v-30h32v30H24zM-9 49c24 4 33-6 33-30v-209h32V24c2 40-23 58-65 49V49" id="aL"/><path fill="#333" d="M18-27v-27l151-64-151-65v-27l175 74v36" id="aM"/><g id="N"><use transform="matrix(0.03765432098765432,0,0,0.03765432098765432,0,0)" xlink:href="#Z"/><use transform="matrix(0.03765432098765432,0,0,0.03765432098765432,7.530864197530864,0)" xlink:href="#aK"/><use transform="matrix(0.03765432098765432,0,0,0.03765432098765432,15.061728395061728,0)" xlink:href="#aL"/><use transform="matrix(0.03765432098765432,0,0,0.03765432098765432,18.03641975308642,0)" xlink:href="#ad"/><use transform="matrix(0.03765432098765432,0,0,0.03765432098765432,25.567283950617284,0)" xlink:href="#ag"/><use transform="matrix(0.03765432098765432,0,0,0.03765432098765432,32.34506172839506,0)" xlink:href="#X"/><use transform="matrix(0.03765432098765432,0,0,0.03765432098765432,36.11049382716049,0)" xlink:href="#aM"/><use transform="matrix(0.03765432098765432,0,0,0.03765432098765432,44.017901234567894,0)" xlink:href="#aM"/></g><g id="O"><use transform="matrix(0.05,0,0,0.05,0,0)" xlink:href="#aC"/><use transform="matrix(0.05,0,0,0.05,12,0)" xlink:href="#U"/><use transform="matrix(0.05,0,0,0.05,17.95,0)" xlink:href="#ad"/><use transform="matrix(0.05,0,0,0.05,27.950000000000003,0)" xlink:href="#W"/><use transform="matrix(0.05,0,0,0.05,36.95,0)" xlink:href="#W"/></g><g id="P"><use transform="matrix(0.05,0,0,0.05,0,0)" xlink:href="#ai"/><use transform="matrix(0.05,0,0,0.05,12.950000000000001,0)" xlink:href="#ad"/><use transform="matrix(0.05,0,0,0.05,22.950000000000003,0)" xlink:href="#at"/><use transform="matrix(0.05,0,0,0.05,26.900000000000002,0)" xlink:href="#ad"/><use transform="matrix(0.05,0,0,0.05,36.900000000000006,0)" xlink:href="#am"/><use transform="matrix(0.05,0,0,0.05,46.900000000000006,0)" xlink:href="#W"/><use transform="matrix(0.05,0,0,0.05,55.900000000000006,0)" xlink:href="#ad"/></g><path fill="#3a414a" d="M185-189c-5-48-123-54-124 2 14 75 158 14 163 119 3 78-121 87-175 55-17-10-28-26-33-46l33-7c5 56 141 63 141-1 0-78-155-14-162-118-5-82 145-84 179-34 5 7 8 16 11 25" id="aN"/><path fill="#3a414a" d="M59-47c-2 24 18 29 38 22v24C64 9 27 4 27-40v-127H5v-23h24l9-43h21v43h35v23H59v120" id="aO"/><path fill="#3a414a" d="M100-194c62-1 85 37 85 99 1 63-27 99-86 99S16-35 15-95c0-66 28-99 85-99zM99-20c44 1 53-31 53-75 0-43-8-75-51-75s-53 32-53 75 10 74 51 75" id="aP"/><path fill="#3a414a" d="M96-169c-40 0-48 33-48 73s9 75 48 75c24 0 41-14 43-38l32 2c-6 37-31 61-74 61-59 0-76-41-82-99-10-93 101-131 147-64 4 7 5 14 7 22l-32 3c-4-21-16-35-41-35" id="aQ"/><path fill="#3a414a" d="M143 0L79-87 56-68V0H24v-261h32v163l83-92h37l-77 82L181 0h-38" id="aR"/><g id="Q"><use transform="matrix(0.06172839506172839,0,0,0.06172839506172839,0,0)" xlink:href="#aN"/><use transform="matrix(0.06172839506172839,0,0,0.06172839506172839,14.814814814814813,0)" xlink:href="#aO"/><use transform="matrix(0.06172839506172839,0,0,0.06172839506172839,20.98765432098765,0)" xlink:href="#aP"/><use transform="matrix(0.06172839506172839,0,0,0.06172839506172839,33.33333333333333,0)" xlink:href="#aQ"/><use transform="matrix(0.06172839506172839,0,0,0.06172839506172839,44.44444444444444,0)" xlink:href="#aR"/></g><path fill="#3a414a" d="M30 0v-248h187v28H63v79h144v27H63v87h162V0H30" id="aS"/><path fill="#3a414a" d="M141 0L90-78 38 0H4l68-98-65-92h35l48 74 47-74h35l-64 92 68 98h-35" id="aT"/><path fill="#3a414a" d="M106-169C34-169 62-67 57 0H25v-261h32l-1 103c12-21 28-36 61-36 89 0 53 116 60 194h-32v-121c2-32-8-49-39-48" id="aU"/><path fill="#3a414a" d="M141-36C126-15 110 5 73 4 37 3 15-17 15-53c-1-64 63-63 125-63 3-35-9-54-41-54-24 1-41 7-42 31l-33-3c5-37 33-52 76-52 45 0 72 20 72 64v82c-1 20 7 32 28 27v20c-31 9-61-2-59-35zM48-53c0 20 12 33 32 33 41-3 63-29 60-74-43 2-92-5-92 41" id="aV"/><path fill="#3a414a" d="M117-194c89-4 53 116 60 194h-32v-121c0-31-8-49-39-48C34-167 62-67 57 0H25l-1-190h30c1 10-1 24 2 32 11-22 29-35 61-36" id="aW"/><path fill="#3a414a" d="M177-190C167-65 218 103 67 71c-23-6-38-20-44-43l32-5c15 47 100 32 89-28v-30C133-14 115 1 83 1 29 1 15-40 15-95c0-56 16-97 71-98 29-1 48 16 59 35 1-10 0-23 2-32h30zM94-22c36 0 50-32 50-73 0-42-14-75-50-75-39 0-46 34-46 75s6 73 46 73" id="aX"/><path fill="#3a414a" d="M100-194c63 0 86 42 84 106H49c0 40 14 67 53 68 26 1 43-12 49-29l28 8c-11 28-37 45-77 45C44 4 14-33 15-96c1-61 26-98 85-98zm52 81c6-60-76-77-97-28-3 7-6 17-6 28h103" id="aY"/><g id="R"><use transform="matrix(0.06172839506172839,0,0,0.06172839506172839,0,0)" xlink:href="#aS"/><use transform="matrix(0.06172839506172839,0,0,0.06172839506172839,14.814814814814813,0)" xlink:href="#aT"/><use transform="matrix(0.06172839506172839,0,0,0.06172839506172839,25.925925925925924,0)" xlink:href="#aQ"/><use transform="matrix(0.06172839506172839,0,0,0.06172839506172839,37.03703703703704,0)" xlink:href="#aU"/><use transform="matrix(0.06172839506172839,0,0,0.06172839506172839,49.382716049382715,0)" xlink:href="#aV"/><use transform="matrix(0.06172839506172839,0,0,0.06172839506172839,61.72839506172839,0)" xlink:href="#aW"/><use transform="matrix(0.06172839506172839,0,0,0.06172839506172839,74.07407407407408,0)" xlink:href="#aX"/><use transform="matrix(0.06172839506172839,0,0,0.06172839506172839,86.41975308641976,0)" xlink:href="#aY"/></g><path fill="#3a414a" d="M33 0v-248h34V0H33" id="aZ"/><path fill="#3a414a" d="M101-234c-31-9-42 10-38 44h38v23H63V0H32v-167H5v-23h27c-7-52 17-82 69-68v24" id="ba"/><path fill="#3a414a" d="M24 0v-261h32V0H24" id="bb"/><path fill="#3a414a" d="M84 4C-5 8 30-112 23-190h32v120c0 31 7 50 39 49 72-2 45-101 50-169h31l1 190h-30c-1-10 1-25-2-33-11 22-28 36-60 37" id="bc"/><g id="S"><use transform="matrix(0.06172839506172839,0,0,0.06172839506172839,0,0)" xlink:href="#aZ"/><use transform="matrix(0.06172839506172839,0,0,0.06172839506172839,6.172839506172839,0)" xlink:href="#aW"/><use transform="matrix(0.06172839506172839,0,0,0.06172839506172839,18.51851851851852,0)" xlink:href="#ba"/><use transform="matrix(0.06172839506172839,0,0,0.06172839506172839,24.691358024691358,0)" xlink:href="#bb"/><use transform="matrix(0.06172839506172839,0,0,0.06172839506172839,29.5679012345679,0)" xlink:href="#bc"/><use transform="matrix(0.06172839506172839,0,0,0.06172839506172839,41.913580246913575,0)" xlink:href="#aY"/><use transform="matrix(0.06172839506172839,0,0,0.06172839506172839,54.25925925925925,0)" xlink:href="#aW"/><use transform="matrix(0.06172839506172839,0,0,0.06172839506172839,66.60493827160494,0)" xlink:href="#aQ"/><use transform="matrix(0.06172839506172839,0,0,0.06172839506172839,77.71604938271605,0)" xlink:href="#aY"/></g></defs></g></svg>